<svg width="78" height="78" viewBox="0 0 78 78" fill="none" xmlns="http://www.w3.org/2000/svg">
<g clip-path="url(#clip0_91_499)">
<path d="M74.1002 0H3.90016C1.67813 0.0707019 -0.066939 1.92745 0.000163101 4.1496V73.8504C-0.066939 76.0725 1.67813 77.9293 3.90016 78H74.1002C76.3222 77.9293 78.0673 76.0725 78.0002 73.8504V4.1496C78.0673 1.92745 76.3222 0.0707019 74.1002 0ZM3.90016 2.6H74.1002C74.8788 2.68467 75.4521 3.36815 75.4002 4.1496V10.4H2.60016V4.1496C2.54819 3.36815 3.12157 2.68467 3.90016 2.6ZM74.1002 75.4H3.90016C3.12157 75.3153 2.54819 74.6319 2.60016 73.8504V13H75.4002V73.8504C75.4619 74.635 74.8836 75.3244 74.1002 75.4Z" fill="#454654"/>
<path d="M6.50001 7.80001C7.21798 7.80001 7.80001 7.21798 7.80001 6.50001C7.80001 5.78204 7.21798 5.20001 6.50001 5.20001C5.78204 5.20001 5.20001 5.78204 5.20001 6.50001C5.20001 7.21798 5.78204 7.80001 6.50001 7.80001Z" fill="#EB3F57"/>
<path d="M11.7 7.80001C12.4179 7.80001 13 7.21798 13 6.50001C13 5.78204 12.4179 5.20001 11.7 5.20001C10.982 5.20001 10.4 5.78204 10.4 6.50001C10.4 7.21798 10.982 7.80001 11.7 7.80001Z" fill="#EB3F57"/>
<path d="M16.9 7.80001C17.6179 7.80001 18.2 7.21798 18.2 6.50001C18.2 5.78204 17.6179 5.20001 16.9 5.20001C16.182 5.20001 15.6 5.78204 15.6 6.50001C15.6 7.21798 16.182 7.80001 16.9 7.80001Z" fill="#EB3F57"/>
<path d="M62.4 7.80001H71.5C72.218 7.80001 72.8 7.21798 72.8 6.50001C72.8 5.78204 72.218 5.20001 71.5 5.20001H62.4C61.682 5.20001 61.1 5.78204 61.1 6.50001C61.1 7.21798 61.682 7.80001 62.4 7.80001Z" fill="#EB3F57"/>
<mask id="path-6-inside-1_91_499" fill="white">
<path d="M23.4 29.9C24.8359 29.9 26 28.736 26 27.3V18.2C26 16.7641 24.8359 15.6 23.4 15.6H10.4C8.96405 15.6 7.79999 16.7641 7.79999 18.2V27.3C7.79999 28.736 8.96405 29.9 10.4 29.9H23.4ZM10.4 18.2H23.4V27.3H10.4V18.2Z"/>
</mask>
<path d="M23.4 29.9C24.8359 29.9 26 28.736 26 27.3V18.2C26 16.7641 24.8359 15.6 23.4 15.6H10.4C8.96405 15.6 7.79999 16.7641 7.79999 18.2V27.3C7.79999 28.736 8.96405 29.9 10.4 29.9H23.4ZM10.4 18.2H23.4V27.3H10.4V18.2Z" fill="#454654"/>
<path d="M10.4 18.2V9.6667H1.86665V18.2H10.4ZM23.4 18.2H31.9333V9.6667H23.4V18.2ZM23.4 27.3V35.8334H31.9333V27.3H23.4ZM10.4 27.3H1.86665V35.8334H10.4V27.3ZM23.4 38.4334C29.5488 38.4334 34.5333 33.4488 34.5333 27.3H17.4667C17.4667 24.0231 20.1231 21.3667 23.4 21.3667V38.4334ZM34.5333 27.3V18.2H17.4667V27.3H34.5333ZM34.5333 18.2C34.5333 12.0513 29.5488 7.0667 23.4 7.0667V24.1334C20.1231 24.1334 17.4667 21.4769 17.4667 18.2H34.5333ZM23.4 7.0667H10.4V24.1334H23.4V7.0667ZM10.4 7.0667C4.25122 7.0667 -0.733346 12.0513 -0.733346 18.2H16.3333C16.3333 21.4769 13.6769 24.1334 10.4 24.1334V7.0667ZM-0.733346 18.2V27.3H16.3333V18.2H-0.733346ZM-0.733346 27.3C-0.733346 33.4488 4.25122 38.4334 10.4 38.4334V21.3667C13.6769 21.3667 16.3333 24.0231 16.3333 27.3H-0.733346ZM10.4 38.4334H23.4V21.3667H10.4V38.4334ZM10.4 26.7334H23.4V9.6667H10.4V26.7334ZM14.8667 18.2V27.3H31.9333V18.2H14.8667ZM23.4 18.7667H10.4V35.8334H23.4V18.7667ZM18.9333 27.3V18.2H1.86665V27.3H18.9333Z" fill="#EB3F57" mask="url(#path-6-inside-1_91_499)"/>
<mask id="path-8-inside-2_91_499" fill="white">
<path d="M32.5 29.9H45.5C46.936 29.9 48.1 28.736 48.1 27.3V18.2C48.1 16.7641 46.936 15.6 45.5 15.6H32.5C31.0641 15.6 29.9 16.7641 29.9 18.2V27.3C29.9 28.736 31.0641 29.9 32.5 29.9ZM32.5 18.2H45.5V27.3H32.5V18.2Z"/>
</mask>
<path d="M32.5 29.9H45.5C46.936 29.9 48.1 28.736 48.1 27.3V18.2C48.1 16.7641 46.936 15.6 45.5 15.6H32.5C31.0641 15.6 29.9 16.7641 29.9 18.2V27.3C29.9 28.736 31.0641 29.9 32.5 29.9ZM32.5 18.2H45.5V27.3H32.5V18.2Z" fill="#454654"/>
<path d="M32.5 18.2V9.6667H23.9667V18.2H32.5ZM45.5 18.2H54.0334V9.6667H45.5V18.2ZM45.5 27.3V35.8334H54.0334V27.3H45.5ZM32.5 27.3H23.9667V35.8334H32.5V27.3ZM32.5 38.4334H45.5V21.3667H32.5V38.4334ZM45.5 38.4334C51.6488 38.4334 56.6334 33.4488 56.6334 27.3H39.5667C39.5667 24.0231 42.2231 21.3667 45.5 21.3667V38.4334ZM56.6334 27.3V18.2H39.5667V27.3H56.6334ZM56.6334 18.2C56.6334 12.0513 51.6488 7.0667 45.5 7.0667V24.1334C42.2231 24.1334 39.5667 21.4769 39.5667 18.2H56.6334ZM45.5 7.0667H32.5V24.1334H45.5V7.0667ZM32.5 7.0667C26.3513 7.0667 21.3667 12.0513 21.3667 18.2H38.4334C38.4334 21.4769 35.7769 24.1334 32.5 24.1334V7.0667ZM21.3667 18.2V27.3H38.4334V18.2H21.3667ZM21.3667 27.3C21.3667 33.4488 26.3513 38.4334 32.5 38.4334V21.3667C35.7769 21.3667 38.4334 24.0231 38.4334 27.3H21.3667ZM32.5 26.7334H45.5V9.6667H32.5V26.7334ZM36.9667 18.2V27.3H54.0334V18.2H36.9667ZM45.5 18.7667H32.5V35.8334H45.5V18.7667ZM41.0334 27.3V18.2H23.9667V27.3H41.0334Z" fill="#EB3F57" mask="url(#path-8-inside-2_91_499)"/>
<mask id="path-10-inside-3_91_499" fill="white">
<path d="M67.6 15.6H54.6C53.1641 15.6 52 16.7641 52 18.2V27.3C52 28.736 53.1641 29.9 54.6 29.9H67.6C69.0359 29.9 70.2 28.736 70.2 27.3V18.2C70.2 16.7641 69.0359 15.6 67.6 15.6ZM54.6 27.3V18.2H67.6V27.3H54.6Z"/>
</mask>
<path d="M67.6 15.6H54.6C53.1641 15.6 52 16.7641 52 18.2V27.3C52 28.736 53.1641 29.9 54.6 29.9H67.6C69.0359 29.9 70.2 28.736 70.2 27.3V18.2C70.2 16.7641 69.0359 15.6 67.6 15.6ZM54.6 27.3V18.2H67.6V27.3H54.6Z" fill="#EB3F57"/>
<path d="M54.6 27.3H46.0667V35.8334H54.6V27.3ZM54.6 18.2V9.6667H46.0667V18.2H54.6ZM67.6 18.2H76.1333V9.6667H67.6V18.2ZM67.6 27.3V35.8334H76.1333V27.3H67.6ZM67.6 7.0667H54.6V24.1334H67.6V7.0667ZM54.6 7.0667C48.4512 7.0667 43.4667 12.0513 43.4667 18.2H60.5333C60.5333 21.4769 57.8769 24.1334 54.6 24.1334V7.0667ZM43.4667 18.2V27.3H60.5333V18.2H43.4667ZM43.4667 27.3C43.4667 33.4488 48.4512 38.4334 54.6 38.4334V21.3667C57.8769 21.3667 60.5333 24.0231 60.5333 27.3H43.4667ZM54.6 38.4334H67.6V21.3667H54.6V38.4334ZM67.6 38.4334C73.7488 38.4334 78.7333 33.4488 78.7333 27.3H61.6667C61.6667 24.0231 64.3231 21.3667 67.6 21.3667V38.4334ZM78.7333 27.3V18.2H61.6667V27.3H78.7333ZM78.7333 18.2C78.7333 12.0513 73.7488 7.0667 67.6 7.0667V24.1334C64.3231 24.1334 61.6667 21.4769 61.6667 18.2H78.7333ZM63.1333 27.3V18.2H46.0667V27.3H63.1333ZM54.6 26.7334H67.6V9.6667H54.6V26.7334ZM59.0667 18.2V27.3H76.1333V18.2H59.0667ZM67.6 18.7667H54.6V35.8334H67.6V18.7667Z" fill="#EB3F57" mask="url(#path-10-inside-3_91_499)"/>
<path d="M23.4 32.5001H10.4C9.68201 32.5001 9.09998 33.0821 9.09998 33.8001C9.09998 34.518 9.68201 35.1001 10.4 35.1001H23.4C24.1179 35.1001 24.7 34.518 24.7 33.8001C24.7 33.0821 24.1179 32.5001 23.4 32.5001Z" fill="#454654"/>
<path d="M23.4 37.7H10.4C9.68201 37.7 9.09998 38.282 9.09998 39C9.09998 39.718 9.68201 40.3 10.4 40.3H23.4C24.1179 40.3 24.7 39.718 24.7 39C24.7 38.282 24.1179 37.7 23.4 37.7Z" fill="#454654"/>
<path d="M45.5 32.5001H32.5C31.782 32.5001 31.2 33.0821 31.2 33.8001C31.2 34.518 31.782 35.1001 32.5 35.1001H45.5C46.218 35.1001 46.8 34.518 46.8 33.8001C46.8 33.0821 46.218 32.5001 45.5 32.5001Z" fill="#454654"/>
<path d="M45.5 37.7H32.5C31.782 37.7 31.2 38.282 31.2 39C31.2 39.718 31.782 40.3 32.5 40.3H45.5C46.218 40.3 46.8 39.718 46.8 39C46.8 38.282 46.218 37.7 45.5 37.7Z" fill="#454654"/>
<path d="M67.6 32.5001H54.6C53.882 32.5001 53.3 33.0821 53.3 33.8001C53.3 34.518 53.882 35.1001 54.6 35.1001H67.6C68.318 35.1001 68.9 34.518 68.9 33.8001C68.9 33.0821 68.318 32.5001 67.6 32.5001Z" fill="#454654"/>
<path d="M59.7116 50.9014C59.6921 50.8806 59.6856 50.8533 59.6661 50.8338C59.6315 50.8079 59.5955 50.784 59.5582 50.7623C47.8571 40.2798 30.1429 40.2798 18.4418 50.7623C18.4044 50.784 18.3684 50.8079 18.3339 50.8338C18.3144 50.8533 18.3079 50.8806 18.2884 50.9014C12.4668 56.1711 9.13179 63.6476 9.09998 71.4999C9.09998 72.2179 9.68201 72.7999 10.4 72.7999H67.6C68.3179 72.7999 68.9 72.2179 68.9 71.4999C68.8682 63.6476 65.5331 56.1711 59.7116 50.9014ZM42.6608 70.1999H35.3392C35.8818 68.6424 37.3506 67.5987 39 67.5987C40.6494 67.5987 42.1181 68.6424 42.6608 70.1999ZM45.37 70.1999C45.0419 68.6358 44.1492 67.2474 42.8623 66.2999L49.2791 52.5485C49.4841 52.1265 49.4457 51.6267 49.1788 51.2409C48.9118 50.855 48.4576 50.643 47.9904 50.6861C47.5232 50.7291 47.1154 51.0206 46.9235 51.4487L40.508 65.1949C40.0148 65.0704 39.5086 65.0049 39 64.9999C35.9123 65.0038 33.2519 67.1756 32.63 70.1999H11.7338C12.0927 63.9231 14.7755 58.0046 19.2595 53.5976L22.4809 56.819C22.991 57.3117 23.8018 57.3046 24.3032 56.8032C24.8047 56.3017 24.8117 55.4909 24.3191 54.9808L21.19 51.8491C25.8665 48.0194 31.6606 45.8126 37.7 45.561V50.6999C37.7 51.4179 38.282 51.9999 39 51.9999C39.7179 51.9999 40.3 51.4179 40.3 50.6999V45.561C46.3393 45.8126 52.1334 48.0194 56.81 51.8491L53.6783 54.9808C53.3403 55.3072 53.2048 55.7906 53.3238 56.2451C53.4427 56.6996 53.7977 57.0546 54.2522 57.1735C54.7067 57.2925 55.1901 57.157 55.5165 56.819L58.7379 53.5976C63.2228 58.0042 65.9065 63.9227 66.2662 70.1999H45.37Z" fill="#EB3F57"/>
<path d="M67.6 37.7H54.6C53.882 37.7 53.3 38.282 53.3 39C53.3 39.718 53.882 40.3 54.6 40.3H67.6C68.318 40.3 68.9 39.718 68.9 39C68.9 38.282 68.318 37.7 67.6 37.7Z" fill="#454654"/>
</g>
<defs>
<clipPath id="clip0_91_499">
<rect width="78" height="78" fill="white"/>
</clipPath>
</defs>
</svg>
