<svg width="108" height="108" viewBox="0 0 108 108" fill="none" xmlns="http://www.w3.org/2000/svg">
<path d="M98.4496 22.7661C98.3759 22.5118 98.2352 22.2821 98.0423 22.101C97.8493 21.9199 97.6111 21.7941 97.3527 21.7367L88.3035 19.6923L86.2591 10.6431C86.201 10.3854 86.0748 10.148 85.8937 9.9557C85.7125 9.76341 85.4831 9.62328 85.2293 9.54992C84.9755 9.47657 84.7067 9.47267 84.4509 9.53866C84.1951 9.60464 83.9617 9.73807 83.7751 9.92503L73.3674 20.3344C64.5603 15.0199 54.1126 13.1129 43.9959 14.9731C33.8792 16.8334 24.7932 22.3323 18.4527 30.432C12.1122 38.5318 8.95566 48.6722 9.57879 58.9396C10.2019 69.2071 14.5616 78.8913 21.8351 86.1649C29.1087 93.4384 38.7929 97.7981 49.0604 98.4212C59.3278 99.0443 69.4682 95.8878 77.568 89.5473C85.6677 83.2068 91.1666 74.1208 93.0269 64.0041C94.8871 53.8874 92.9801 43.4397 87.6656 34.6326L98.0775 24.2207C98.2639 24.0336 98.3967 23.8 98.4621 23.5442C98.5276 23.2883 98.5232 23.0197 98.4496 22.7661V22.7661ZM90.7664 56.3937C90.7652 65.014 87.9193 73.393 82.6702 80.2309C77.4211 87.0687 70.0621 91.9832 61.7349 94.212C53.4077 96.4408 44.5778 95.8593 36.6148 92.5577C28.6518 89.256 22.0009 83.4189 17.6939 75.9517C13.3869 68.4845 11.6644 59.8046 12.7938 51.2586C13.9231 42.7126 17.8411 34.7782 23.94 28.6861C30.0388 22.594 37.9777 18.6848 46.5249 17.565C55.0722 16.4452 63.7501 18.1773 71.2125 22.4927L66.4327 27.2725C66.3916 27.3193 66.3535 27.3686 66.3188 27.4202C59.417 23.9065 51.4884 22.9697 43.9578 24.7782C36.4273 26.5868 29.7888 31.022 25.2355 37.2868C20.6822 43.5516 18.5127 51.235 19.1171 58.956C19.7214 66.6771 23.0599 73.9294 28.5325 79.4094C34.005 84.8894 41.2528 88.2378 48.973 88.8526C56.6933 89.4675 64.3796 87.3085 70.6506 82.7637C76.9215 78.219 81.3658 71.5865 83.1846 64.0584C85.0034 56.5303 84.0774 48.6004 80.5731 41.6939C80.6273 41.6556 80.6789 41.6136 80.7275 41.5682L85.5073 36.7883C88.9591 42.7451 90.7735 49.5091 90.7664 56.3937V56.3937ZM77.069 41.4475C80.6952 47.6378 81.9413 54.9374 80.5741 61.9801C79.2069 69.0228 75.3202 75.3259 69.6412 79.7099C63.9623 84.0938 56.8805 86.258 49.7211 85.7975C42.5617 85.337 35.8155 82.2833 30.745 77.2079C25.6745 72.1326 22.6273 65.3834 22.1737 58.2236C21.7201 51.0638 23.8911 43.984 28.2805 38.3093C32.6699 32.6346 38.9767 28.7539 46.0208 27.3935C53.0648 26.0331 60.3631 27.2862 66.5499 30.9184L68.105 37.8067L66.6132 39.2985C62.1646 35.3921 56.3712 33.3687 50.4579 33.6563C44.5446 33.9439 38.9749 36.5199 34.9264 40.8396C30.8779 45.1593 28.6679 50.8841 28.7638 56.8037C28.8597 62.7232 31.2539 68.3735 35.4402 72.5598C39.6265 76.7461 45.2768 79.1403 51.1963 79.2362C57.1159 79.3321 62.8407 77.1221 67.1604 73.0736C71.4801 69.0251 74.0561 63.4554 74.3437 57.5421C74.6313 51.6288 72.608 45.8354 68.7015 41.3868L70.1933 39.895L77.069 41.4475ZM57.9555 56.3937C57.9607 57.8052 57.4972 59.1785 56.6376 60.2981C55.778 61.4177 54.5711 62.2203 53.2061 62.5799C51.8412 62.9394 50.3955 62.8357 49.0959 62.2849C47.7962 61.7341 46.7163 60.7674 46.0254 59.5365C45.3345 58.3056 45.0719 56.8802 45.2786 55.4839C45.4853 54.0876 46.1498 52.7994 47.1677 51.8215C48.1856 50.8437 49.4994 50.2314 50.9028 50.0808C52.3063 49.9302 53.72 50.2498 54.9222 50.9895L50.5617 55.35C50.4207 55.4862 50.3083 55.6492 50.2309 55.8294C50.1536 56.0095 50.1129 56.2033 50.1112 56.3993C50.1096 56.5954 50.147 56.7898 50.2212 56.9713C50.2955 57.1527 50.4052 57.3176 50.5439 57.4562C50.6825 57.5948 50.8474 57.7044 51.0289 57.7786C51.2104 57.8528 51.4048 57.8901 51.6009 57.8884C51.7969 57.8866 51.9907 57.8459 52.1708 57.7684C52.3509 57.691 52.5138 57.5785 52.65 57.4374L57.0105 53.0769C57.6279 54.0731 57.9551 55.2217 57.9555 56.3937V56.3937ZM57.0476 48.8641C55.1452 47.4861 52.7935 46.8756 50.461 47.1541C48.1286 47.4326 45.9867 48.5797 44.4623 50.3669C42.9378 52.154 42.1427 54.45 42.2354 56.7971C42.3281 59.1443 43.3019 61.3704 44.9625 63.0318C46.6232 64.6931 48.8489 65.6677 51.196 65.7614C53.5432 65.855 55.8394 65.0609 57.6272 63.5371C59.415 62.0134 60.563 59.872 60.8424 57.5397C61.1219 55.2073 60.5123 52.8553 59.1351 50.9524L66.609 43.4784C69.9578 47.369 71.6681 52.4062 71.3804 57.5314C71.0927 62.6567 68.8295 67.4709 65.0664 70.9622C61.3032 74.4536 56.3332 76.3503 51.2008 76.2536C46.0684 76.157 41.1733 74.0746 37.5442 70.4441C33.9151 66.8135 31.8347 61.9176 31.7402 56.7851C31.6456 51.6527 33.5443 46.6834 37.0372 42.9217C40.53 39.1599 45.3451 36.8987 50.4705 36.6131C55.5959 36.3275 60.6324 38.0398 64.5216 41.3902L57.0476 48.8641ZM84.7598 33.3593L79.218 38.9003L78.3869 38.7129L78.3548 38.7053L70.9594 37.0406L69.0955 28.7862L83.9725 13.9067L85.6322 21.2524C85.6937 21.5247 85.8312 21.774 86.0286 21.9714C86.226 22.1688 86.4753 22.3063 86.7476 22.3678L94.0933 24.0275L84.7598 33.3593Z" fill="#EB3F57"/>
</svg>
