<svg width="96" height="96" viewBox="0 0 96 96" fill="none" xmlns="http://www.w3.org/2000/svg">
<path d="M88.5 3H7.5C6.30762 3.00356 5.1651 3.47881 4.32195 4.32195C3.47881 5.1651 3.00356 6.30762 3 7.5V63C3.00356 64.1924 3.47881 65.3349 4.32195 66.1781C5.1651 67.0212 6.30762 67.4964 7.5 67.5H23.115C23.1724 67.6953 23.1509 67.9054 23.055 68.085L19.275 74.37C18.7584 75.2328 18.5456 76.2437 18.6707 77.2415C18.7958 78.2393 19.2514 79.1664 19.965 79.875L25.125 85.035C25.8336 85.7486 26.7607 86.2042 27.7585 86.3293C28.7563 86.4544 29.7672 86.2416 30.63 85.725L36.915 81.945C37.0351 81.8826 37.168 81.8488 37.3032 81.8462C37.4385 81.8436 37.5726 81.8723 37.695 81.93C37.817 81.977 37.9265 82.0515 38.015 82.1478C38.1034 82.2441 38.1685 82.3595 38.205 82.485L39.975 89.595C40.2191 90.5678 40.7811 91.4312 41.5719 92.0481C42.3628 92.665 43.337 93.0001 44.34 93H51.66C52.663 93.0001 53.6372 92.665 54.4281 92.0481C55.2189 91.4312 55.7809 90.5678 56.025 89.595L57.795 82.485C57.8347 82.3546 57.9041 82.2353 57.9978 82.1364C58.0915 82.0374 58.207 81.9617 58.335 81.915C58.4543 81.8635 58.5836 81.8394 58.7134 81.8446C58.8432 81.8498 58.9702 81.8841 59.085 81.945L65.37 85.725C66.2338 86.2383 67.2439 86.4491 68.2408 86.3241C69.2378 86.1992 70.1646 85.7456 70.875 85.035L76.035 79.875C76.7486 79.1664 77.2042 78.2393 77.3293 77.2415C77.4544 76.2437 77.2416 75.2328 76.725 74.37L72.945 68.085C72.8565 67.9032 72.8352 67.696 72.885 67.5H88.5C89.6924 67.4964 90.8349 67.0212 91.678 66.1781C92.5212 65.3349 92.9964 64.1924 93 63V7.5C92.9964 6.30762 92.5212 5.1651 91.678 4.32195C90.8349 3.47881 89.6924 3.00356 88.5 3ZM81 60.66C80.9997 60.995 80.8873 61.3203 80.6807 61.584C80.4741 61.8477 80.1852 62.0346 79.86 62.115L72.75 63.885C72.1653 64.0406 71.625 64.3304 71.1719 64.7314C70.7188 65.1324 70.3655 65.6335 70.14 66.195C69.9104 66.7469 69.8126 67.3446 69.8543 67.9408C69.8959 68.5371 70.0759 69.1154 70.38 69.63L74.145 75.915C74.3205 76.2004 74.3939 76.5369 74.353 76.8694C74.3121 77.2019 74.1594 77.5107 73.92 77.745L68.745 82.92C68.5107 83.1594 68.2019 83.3121 67.8694 83.353C67.5369 83.3939 67.2004 83.3205 66.915 83.145L60.63 79.38C60.11 79.0797 59.5279 78.903 58.9287 78.8633C58.3296 78.8235 57.7293 78.922 57.1742 79.151C56.6191 79.38 56.124 79.7334 55.7271 80.184C55.3302 80.6347 55.0421 81.1704 54.885 81.75L53.115 88.86C53.0346 89.1852 52.8477 89.4741 52.584 89.6807C52.3203 89.8873 51.995 89.9997 51.66 90H44.34C44.005 89.9997 43.6797 89.8873 43.416 89.6807C43.1523 89.4741 42.9654 89.1852 42.885 88.86L41.115 81.75C40.9594 81.1653 40.6696 80.625 40.2686 80.1719C39.8676 79.7188 39.3665 79.3655 38.805 79.14C38.329 78.9443 37.8197 78.8424 37.305 78.84C36.6225 78.8379 35.9528 79.0248 35.37 79.38L29.085 83.145C28.7996 83.3205 28.4631 83.3939 28.1306 83.353C27.7981 83.3121 27.4893 83.1594 27.255 82.92L22.08 77.745C21.8406 77.5107 21.6879 77.2019 21.647 76.8694C21.6061 76.5369 21.6795 76.2004 21.855 75.915L25.62 69.63C25.9202 69.11 26.097 68.5279 26.1367 67.9287C26.1765 67.3296 26.078 66.7293 25.849 66.1742C25.62 65.6191 25.2666 65.124 24.816 64.7271C24.3653 64.3302 23.8296 64.0421 23.25 63.885L16.14 62.115C15.8148 62.0346 15.5259 61.8477 15.3193 61.584C15.1126 61.3203 15.0003 60.995 15 60.66V53.34C15.0003 53.005 15.1126 52.6797 15.3193 52.416C15.5259 52.1523 15.8148 51.9654 16.14 51.885L23.25 50.115C23.8347 49.9594 24.375 49.6696 24.8281 49.2686C25.2812 48.8676 25.6345 48.3665 25.86 47.805C26.0896 47.2531 26.1874 46.6554 26.1457 46.0592C26.1041 45.4629 25.9241 44.8846 25.62 44.37L21.855 38.085C21.6795 37.7996 21.6061 37.4631 21.647 37.1306C21.6879 36.7981 21.8406 36.4893 22.08 36.255L27.255 31.08C27.4893 30.8406 27.7981 30.6879 28.1306 30.647C28.4631 30.6061 28.7996 30.6795 29.085 30.855L35.37 34.62C35.89 34.9202 36.4721 35.097 37.0713 35.1367C37.6704 35.1765 38.2707 35.078 38.8258 34.849C39.3809 34.62 39.876 34.2666 40.2729 33.816C40.6698 33.3653 40.9579 32.8296 41.115 32.25L42.885 25.14C42.9654 24.8148 43.1523 24.5259 43.416 24.3193C43.6797 24.1126 44.005 24.0003 44.34 24H51.66C51.995 24.0003 52.3203 24.1126 52.584 24.3193C52.8477 24.5259 53.0346 24.8148 53.115 25.14L54.885 32.25C55.0406 32.8347 55.3304 33.375 55.7314 33.8281C56.1324 34.2812 56.6335 34.6345 57.195 34.86C57.7469 35.0896 58.3446 35.1874 58.9408 35.1457C59.5371 35.1041 60.1154 34.9241 60.63 34.62L66.915 30.855C67.2015 30.6834 67.5372 30.6124 67.8687 30.6531C68.2001 30.6939 68.5086 30.8441 68.745 31.08L73.92 36.255C74.1594 36.4893 74.3121 36.7981 74.353 37.1306C74.3939 37.4631 74.3205 37.7996 74.145 38.085L70.38 44.37C70.0797 44.89 69.903 45.4721 69.8633 46.0713C69.8235 46.6704 69.922 47.2707 70.151 47.8258C70.38 48.3809 70.7334 48.876 71.184 49.2729C71.6347 49.6698 72.1704 49.9579 72.75 50.115L79.86 51.885C80.1852 51.9654 80.4741 52.1523 80.6807 52.416C80.8873 52.6797 80.9997 53.005 81 53.34V60.66ZM90 63C90 63.3978 89.842 63.7794 89.5607 64.0607C89.2794 64.342 88.8978 64.5 88.5 64.5H81.825C82.4878 64.1017 83.0364 63.5389 83.4175 62.866C83.7986 62.1932 83.9992 61.4333 84 60.66V53.34C84.0001 52.337 83.665 51.3628 83.0481 50.5719C82.4312 49.7811 81.5678 49.2191 80.595 48.975L73.485 47.205C73.2743 47.1478 73.0924 47.0141 72.975 46.83C72.96 46.785 72.93 46.71 72.915 46.665C72.8635 46.5457 72.8394 46.4164 72.8446 46.2866C72.8498 46.1568 72.8841 46.0298 72.945 45.915L76.725 39.63C77.2416 38.7672 77.4544 37.7563 77.3293 36.7585C77.2042 35.7607 76.7486 34.8336 76.035 34.125L70.875 28.965C70.1664 28.2514 69.2393 27.7958 68.2415 27.6707C67.2437 27.5456 66.2328 27.7584 65.37 28.275L59.085 32.055C58.9649 32.1174 58.832 32.1512 58.6968 32.1538C58.5615 32.1564 58.4274 32.1277 58.305 32.07C58.183 32.023 58.0735 31.9485 57.985 31.8522C57.8966 31.7559 57.8315 31.6405 57.795 31.515L56.025 24.405C55.7809 23.4322 55.2189 22.5688 54.4281 21.9519C53.6372 21.335 52.663 20.9999 51.66 21H44.34C43.337 20.9999 42.3628 21.335 41.5719 21.9519C40.7811 22.5688 40.2191 23.4322 39.975 24.405L38.205 31.515C38.1653 31.6454 38.0959 31.7647 38.0022 31.8636C37.9085 31.9626 37.793 32.0383 37.665 32.085C37.5457 32.1365 37.4164 32.1606 37.2866 32.1554C37.1568 32.1502 37.0298 32.1159 36.915 32.055L30.63 28.275C29.7663 27.7617 28.7561 27.5509 27.7592 27.6759C26.7622 27.8008 25.8354 28.2544 25.125 28.965L19.965 34.125C19.2514 34.8336 18.7958 35.7607 18.6707 36.7585C18.5456 37.7563 18.7584 38.7672 19.275 39.63L23.055 45.915C23.1174 46.0351 23.1512 46.168 23.1538 46.3032C23.1564 46.4385 23.1277 46.5726 23.07 46.695C23.023 46.817 22.9485 46.9265 22.8522 47.015C22.7559 47.1034 22.6405 47.1685 22.515 47.205L15.405 48.975C14.4322 49.2191 13.5688 49.7811 12.9519 50.5719C12.335 51.3628 11.9999 52.337 12 53.34V60.66C12.0008 61.4333 12.2014 62.1932 12.5825 62.866C12.9636 63.5389 13.5122 64.1017 14.175 64.5H7.5C7.10218 64.5 6.72064 64.342 6.43934 64.0607C6.15804 63.7794 6 63.3978 6 63V18H90V63ZM90 15H6V7.5C6 7.10218 6.15804 6.72064 6.43934 6.43934C6.72064 6.15804 7.10218 6 7.5 6H88.5C88.8978 6 89.2794 6.15804 89.5607 6.43934C89.842 6.72064 90 7.10218 90 7.5V15Z" fill="#454654"/>
<path d="M9 9H12V12H9V9Z" fill="#EB3F57"/>
<path d="M15 9H18V12H15V9Z" fill="#EB3F57"/>
<path d="M21 9H24V12H21V9Z" fill="#EB3F57"/>
<path d="M48 39C44.4399 39 40.9598 40.0557 37.9997 42.0335C35.0397 44.0114 32.7326 46.8226 31.3702 50.1117C30.0078 53.4008 29.6513 57.02 30.3459 60.5116C31.0404 64.0033 32.7547 67.2106 35.2721 69.7279C37.7894 72.2453 40.9967 73.9596 44.4884 74.6541C47.98 75.3487 51.5992 74.9922 54.8883 73.6298C58.1774 72.2675 60.9886 69.9603 62.9665 67.0003C64.9443 64.0402 66 60.5601 66 57C65.9948 52.2277 64.0968 47.6523 60.7222 44.2778C57.3477 40.9032 52.7723 39.0052 48 39ZM48 72C45.0333 72 42.1332 71.1203 39.6665 69.472C37.1997 67.8238 35.2771 65.4811 34.1418 62.7403C33.0065 59.9994 32.7094 56.9834 33.2882 54.0736C33.867 51.1639 35.2956 48.4912 37.3934 46.3934C39.4912 44.2956 42.1639 42.867 45.0737 42.2882C47.9834 41.7094 50.9994 42.0065 53.7403 43.1418C56.4812 44.2771 58.8238 46.1997 60.4721 48.6664C62.1203 51.1332 63 54.0333 63 57C62.9956 60.9769 61.4139 64.7897 58.6018 67.6018C55.7897 70.4139 51.9769 71.9956 48 72Z" fill="#EB3F57"/>
<path d="M46.5 55.5H49.5V58.5H46.5V55.5Z" fill="#EB3F57"/>
<path d="M52.5 55.5H55.5V58.5H52.5V55.5Z" fill="#454654"/>
<path d="M40.5 55.5H43.5V58.5H40.5V55.5Z" fill="#454654"/>
</svg>
